<svg xmlns="http://www.w3.org/2000/svg" width="57.032" height="57.033" viewBox="0 0 57.032 57.033">
  <g id="Group_181" data-name="Group 181" transform="matrix(0.94, 0.342, -0.342, 0.94, 15.219, 0)">
    <path id="Path_2627" data-name="Path 2627" d="M44.4,20.192A22.247,22.247,0,1,1,20.278.091,22.247,22.247,0,0,1,44.4,20.192Z" transform="translate(0 0)" fill="#23bf4b"/>
    <g id="Group_160" data-name="Group 160" transform="translate(5.043 4.546)" opacity="0.3">
      <path id="Path_2628" data-name="Path 2628" d="M34.03,15.575a10.609,10.609,0,0,1-.623-2.01,18.094,18.094,0,0,0-2.412-5A17.3,17.3,0,0,0,28.483,5.7a16.909,16.909,0,0,0-3.568-2.513,15.747,15.747,0,0,0-2.161-.94A16.379,16.379,0,0,0,20.387,1.6a16.628,16.628,0,0,0-2.513-.286,17.585,17.585,0,0,0-2.613.106,18.668,18.668,0,0,0-2.563.5,16.823,16.823,0,0,0-2.382.884A16.5,16.5,0,0,0,6.3,5.424,16.954,16.954,0,0,0,3.421,8.7a17.292,17.292,0,0,0-1.749,3.387A17.866,17.866,0,0,0,.527,17.51,9.893,9.893,0,0,1,.391,19.6C.285,19.611.1,18.877.019,17.51A15.724,15.724,0,0,1,.8,11.776,16.926,16.926,0,0,1,5.5,4.54,17.2,17.2,0,0,1,12.341.69,18.592,18.592,0,0,1,15.105.122,19.029,19.029,0,0,1,17.924.012a17.932,17.932,0,0,1,2.724.332,17.368,17.368,0,0,1,4.844,1.769,17,17,0,0,1,6.287,5.91A15.666,15.666,0,0,1,33.91,13.4,5.422,5.422,0,0,1,34.03,15.575Z" transform="translate(0 0)"/>
    </g>
    <path id="Path_2630" data-name="Path 2630" d="M0,3.111a.623.623,0,0,1,.035.136,2.667,2.667,0,0,0,.07.4c.03.161.06.4.1.643a7.309,7.309,0,0,0,.176.874,17.148,17.148,0,0,0,4.583,8.272l.794.724c.136.116.261.246.407.362l.447.332c.3.221.6.467.92.673l1.005.608a17.172,17.172,0,0,0,4.6,1.784,16.794,16.794,0,0,0,10.418-.96,17.157,17.157,0,0,0,4.2-2.593l.874-.779c.281-.261.5-.558.779-.829.126-.136.256-.271.377-.407s.226-.291.342-.432c.216-.291.432-.573.648-.854A17.8,17.8,0,0,0,32.6,7.613a17.089,17.089,0,0,0,1.171-5.528,6.7,6.7,0,0,0,0-.889V.141a.78.78,0,0,1,0-.141.576.576,0,0,1,0,.136,2.085,2.085,0,0,0,.03.4c.03.161,0,.4.035.658a5.7,5.7,0,0,1,0,.894,16.538,16.538,0,0,1-1.1,5.583,17.2,17.2,0,0,1-1.819,3.518l-.628.879c-.116.146-.221.3-.342.442l-.382.417c-.256.276-.5.573-.789.839l-.879.8a17.366,17.366,0,0,1-4.251,2.643,16.956,16.956,0,0,1-10.553.975,17.223,17.223,0,0,1-4.663-1.829l-1.005-.618c-.327-.211-.623-.462-.93-.683l-.447-.342c-.146-.116-.276-.251-.417-.372l-.814-.764a17.612,17.612,0,0,1-2.427-3.116,16.58,16.58,0,0,1-2.1-5.292,6.088,6.088,0,0,1-.151-.879C.1,4.04.076,3.819.051,3.638s-.03-.3-.045-.4A.7.7,0,0,1,0,3.111Z" transform="translate(5.362 20.614)" fill="#263238"/>
    <g id="tree-solid" transform="translate(11.532 15.235) rotate(-17)">
      <path id="Path_2835" data-name="Path 2835" d="M8.345.007a8.035,8.035,0,1,0-.618,16.058V12.854L4.516,9.642a.611.611,0,0,1,.865-.865l2.347,2.347V7.3L6.06,5.628a.611.611,0,0,1,.865-.865L8.963,6.8V8.654L11,6.616a.611.611,0,1,1,.865.865l-2.9,2.9v5.682A8.035,8.035,0,1,0,8.345.007Z" transform="translate(0 0)" fill="rgba(255,255,255,0.95)"/>
      <path id="Path_2836" data-name="Path 2836" d="M.618,0H0V3.088a.584.584,0,0,0,.618.618.584.584,0,0,0,.618-.618V0Z" transform="translate(7.727 16.065)" fill="rgba(255,255,255,0.95)"/>
    </g>
  </g>
</svg>
