<svg xmlns="http://www.w3.org/2000/svg" width="406.054" height="201" viewBox="0 0 406.054 201">
  <g id="Group_220" data-name="Group 220" transform="translate(-23.946 -414.042)">
    <path id="Rectangle_279" data-name="Rectangle 279" d="M75,0H406.054a0,0,0,0,1,0,0V201a0,0,0,0,1,0,0H75A75,75,0,0,1,0,126V75A75,75,0,0,1,75,0Z" transform="translate(23.946 414.042)" fill="rgba(35,191,75,0.52)"/>
    <text id="Red_Cactus" data-name="Red Cactus" transform="translate(203 447)" fill="#263238" stroke="#263238" stroke-width="0.5" font-size="23" font-family="Poppins-Medium, Poppins" font-weight="500" letter-spacing="0.02em"><tspan x="0" y="0">R</tspan><tspan y="0" font-size="20">ed</tspan><tspan y="0" xml:space="preserve"> C</tspan><tspan y="0" font-size="20">actus</tspan></text>
    <text id="Nickname:_Spike" data-name="Nickname: Spike" transform="translate(203 493)" fill="#263238" font-size="17" font-family="Poppins-SemiBold, Poppins" letter-spacing="0.001em" font-weight="600"><tspan x="0" y="0">N</tspan><tspan y="0" font-size="15">ickname</tspan><tspan y="0" font-size="16">: </tspan><tspan y="0" font-size="16" font-family="Poppins-Regular, Poppins" font-weight="400" letter-spacing="0.002em">Spike</tspan></text>
    <text id="Type:_Flowering" data-name="Type: Flowering" transform="translate(203 515)" fill="#263238" font-size="17" font-family="Poppins-SemiBold, Poppins" letter-spacing="0.001em" font-weight="600"><tspan x="0" y="0">T</tspan><tspan y="0" font-size="15">ype</tspan><tspan y="0" font-size="16">: </tspan><tspan y="0" font-size="16" font-family="Poppins-Regular, Poppins" font-weight="400">Flowering</tspan></text>
    <text id="Sowed:_14-February-2023" data-name="Sowed: 14-February-2023" transform="translate(203 539)" fill="#263238" font-size="17" font-family="Poppins-SemiBold, Poppins" letter-spacing="0.001em" font-weight="600"><tspan x="0" y="0">S</tspan><tspan y="0" font-size="15">owed</tspan><tspan y="0" font-size="16">: </tspan><tspan y="0" font-size="16" font-family="Poppins-Regular, Poppins" font-weight="400">14-February-2023</tspan></text>
    <text id="Sprout:_28-February-2023" data-name="Sprout: 28-February-2023" transform="translate(203 563)" fill="#263238" font-size="17" font-family="Poppins-SemiBold, Poppins" letter-spacing="0.001em" font-weight="600"><tspan x="0" y="0">S</tspan><tspan y="0" font-size="15">prout</tspan><tspan y="0" font-size="16">: </tspan><tspan y="0" font-size="16" font-family="Poppins-Regular, Poppins" font-weight="400">28-February-2023</tspan></text>
    <text id="Status:_Seed" data-name="Status: Seed" transform="translate(203 582.708)" fill="#263238" font-size="17" font-family="Poppins-SemiBold, Poppins" letter-spacing="0.001em" font-weight="600"><tspan x="0" y="0">S</tspan><tspan y="0" font-size="15">tatus</tspan><tspan y="0" font-size="16">: </tspan><tspan y="0" font-size="16" font-family="Poppins-Regular, Poppins" font-weight="400">Seed</tspan></text>
  </g>
</svg>
