<svg xmlns="http://www.w3.org/2000/svg" width="406.054" height="201" viewBox="0 0 406.054 201">
  <g id="Group_219" data-name="Group 219" transform="translate(-23.946 -155)">
    <path id="Rectangle_273" data-name="Rectangle 273" d="M75,0H406.054a0,0,0,0,1,0,0V201a0,0,0,0,1,0,0H75A75,75,0,0,1,0,126V75A75,75,0,0,1,75,0Z" transform="translate(23.946 155)" fill="rgba(35,191,75,0.52)"/>
    <text id="Monsterae_Deliciosa" data-name="Monsterae Deliciosa" transform="translate(208 188)" fill="#263238" stroke="#263238" stroke-width="0.5" font-size="23" font-family="Poppins-Medium, Poppins" font-weight="500" letter-spacing="0.02em"><tspan x="0" y="0">M</tspan><tspan y="0" font-size="20">onsterae</tspan><tspan y="0" xml:space="preserve"> D</tspan><tspan y="0" font-size="20">eliciosa</tspan></text>
    <text id="Nickname:_Monsty" data-name="Nickname: Monsty" transform="translate(208 234)" fill="#263238" font-size="17" font-family="Poppins-SemiBold, Poppins" letter-spacing="0.001em" font-weight="600"><tspan x="0" y="0">N</tspan><tspan y="0" font-size="15">ickname</tspan><tspan y="0" font-size="16">: </tspan><tspan y="0" font-size="16" font-family="Poppins-Regular, Poppins" font-weight="400">Monsty</tspan></text>
    <text id="Type:_Flowering" data-name="Type: Flowering" transform="translate(208 256)" fill="#263238" font-size="17" font-family="Poppins-SemiBold, Poppins" letter-spacing="0.001em" font-weight="600"><tspan x="0" y="0">T</tspan><tspan y="0" font-size="15">ype</tspan><tspan y="0" font-size="16">: </tspan><tspan y="0" font-size="16" font-family="Poppins-Regular, Poppins" font-weight="400">Flowering</tspan></text>
    <text id="Sowed:_9-March-2023" data-name="Sowed: 9-March-2023" transform="translate(208 280)" fill="#263238" font-size="17" font-family="Poppins-SemiBold, Poppins" letter-spacing="0.001em" font-weight="600"><tspan x="0" y="0">S</tspan><tspan y="0" font-size="15">owed</tspan><tspan y="0" font-size="16">: </tspan><tspan y="0" font-size="16" font-family="Poppins-Regular, Poppins" font-weight="400">9-March-2023</tspan></text>
    <text id="Sprout:_25-March-2023" data-name="Sprout: 25-March-2023" transform="translate(208 304)" fill="#263238" font-size="17" font-family="Poppins-SemiBold, Poppins" letter-spacing="0.001em" font-weight="600"><tspan x="0" y="0">S</tspan><tspan y="0" font-size="15">prout</tspan><tspan y="0" font-size="16">: </tspan><tspan y="0" font-size="16" font-family="Poppins-Regular, Poppins" font-weight="400">25-March-2023</tspan></text>
    <text id="Status:_Adult" data-name="Status: Adult" transform="translate(208 328)" fill="#263238" font-size="17" font-family="Poppins-SemiBold, Poppins" letter-spacing="0.001em" font-weight="600"><tspan x="0" y="0">S</tspan><tspan y="0" font-size="15">tatus</tspan><tspan y="0" font-size="16">: </tspan><tspan y="0" font-size="16" font-family="Poppins-Regular, Poppins" font-weight="400">Adult</tspan></text>
  </g>
</svg>
