<svg xmlns="http://www.w3.org/2000/svg" width="406.054" height="201" viewBox="0 0 406.054 201">
  <g id="Group_221" data-name="Group 221" transform="translate(-23.945 -685.084)">
    <path id="Rectangle_280" data-name="Rectangle 280" d="M75,0H406.054a0,0,0,0,1,0,0V201a0,0,0,0,1,0,0H75A75,75,0,0,1,0,126V75A75,75,0,0,1,75,0Z" transform="translate(23.945 685.084)" fill="rgba(35,191,75,0.52)"/>
    <text id="Schefflera_Arboricola" data-name="Schefflera Arboricola" transform="translate(203 719)" fill="#263238" stroke="#263238" stroke-width="0.5" font-size="23" font-family="Poppins-Medium, Poppins" font-weight="500" letter-spacing="0.02em"><tspan x="0" y="0">S</tspan><tspan y="0" font-size="20">chefflera</tspan><tspan y="0" xml:space="preserve"> A</tspan><tspan y="0" font-size="20">rboricola</tspan></text>
    <text id="Nickname:_Umbrella" data-name="Nickname: Umbrella" transform="translate(203 765)" fill="#263238" font-size="17" font-family="Poppins-SemiBold, Poppins" letter-spacing="0.001em" font-weight="600"><tspan x="0" y="0">N</tspan><tspan y="0" font-size="15">ickname</tspan><tspan y="0" font-size="16">: </tspan><tspan y="0" font-size="16" font-family="Poppins-Regular, Poppins" font-weight="400">Umbrella</tspan></text>
    <text id="Type:_Flowering" data-name="Type: Flowering" transform="translate(203 787)" fill="#263238" font-size="17" font-family="Poppins-SemiBold, Poppins" letter-spacing="0.001em" font-weight="600"><tspan x="0" y="0">T</tspan><tspan y="0" font-size="15">ype</tspan><tspan y="0" font-size="16">: </tspan><tspan y="0" font-size="16" font-family="Poppins-Regular, Poppins" font-weight="400">Flowering</tspan></text>
    <text id="Sowed:_10-March-2023" data-name="Sowed: 10-March-2023" transform="translate(203 811)" fill="#263238" font-size="17" font-family="Poppins-SemiBold, Poppins" letter-spacing="0.001em" font-weight="600"><tspan x="0" y="0">S</tspan><tspan y="0" font-size="15">owed</tspan><tspan y="0" font-size="16">: </tspan><tspan y="0" font-size="16" font-family="Poppins-Regular, Poppins" font-weight="400">10-March-2023</tspan></text>
    <text id="Sprout:_15-Jult-2023" data-name="Sprout: 15-Jult-2023" transform="translate(203 835)" fill="#263238" font-size="17" font-family="Poppins-SemiBold, Poppins" letter-spacing="0.001em" font-weight="600"><tspan x="0" y="0">S</tspan><tspan y="0" font-size="15">prout</tspan><tspan y="0" font-size="16">: </tspan><tspan y="0" font-size="16" font-family="Poppins-Regular, Poppins" font-weight="400">15-Jult-2023</tspan></text>
    <text id="Status:_Sprouting" data-name="Status: Sprouting" transform="translate(203 855)" fill="#263238" font-size="17" font-family="Poppins-SemiBold, Poppins" letter-spacing="0.001em" font-weight="600"><tspan x="0" y="0">S</tspan><tspan y="0" font-size="15">tatus</tspan><tspan y="0" font-size="16">: </tspan><tspan y="0" font-size="16" font-family="Poppins-Regular, Poppins" font-weight="400">Sprouting</tspan></text>
  </g>
</svg>
